<?xml version="1.0" encoding="UTF-8" standalone="no"?>
<!-- Created with Inkscape (http://www.inkscape.org/) -->

<svg
   width="210mm"
   height="297mm"
   viewBox="0 0 210 297"
   version="1.1"
   id="svg1"
   inkscape:version="1.4.2 (ebf0e940, 2025-05-08)"
   sodipodi:docname="drawing-1.svg"
   xmlns:inkscape="http://www.inkscape.org/namespaces/inkscape"
   xmlns:sodipodi="http://sodipodi.sourceforge.net/DTD/sodipodi-0.dtd"
   xmlns="http://www.w3.org/2000/svg"
   xmlns:svg="http://www.w3.org/2000/svg">
  <sodipodi:namedview
     id="namedview1"
     pagecolor="#ffffff"
     bordercolor="#000000"
     borderopacity="0.25"
     inkscape:showpageshadow="2"
     inkscape:pageopacity="0.0"
     inkscape:pagecheckerboard="0"
     inkscape:deskcolor="#d1d1d1"
     inkscape:document-units="mm"
     inkscape:zoom="1"
     inkscape:cx="409.5"
     inkscape:cy="540.5"
     inkscape:window-width="1472"
     inkscape:window-height="890"
     inkscape:window-x="0"
     inkscape:window-y="38"
     inkscape:window-maximized="0"
     inkscape:current-layer="layer1" />
  <defs>
    <style>
      .brain-region {
        fill: #e0e0e0;
        stroke: #333;
        stroke-width: 2;
        cursor: pointer;
        transition: all 0.3s ease;
      }
      .brain-region:hover {
        fill: #d0d0d0;
        stroke-width: 3;
      }
      .brain-region.selected {
        fill: #4CAF50;
      }
    </style>
  </defs>

  <g
     inkscape:label="Layer 1"
     inkscape:groupmode="layer"
     id="brain-regions">
	 
	 
    <path
      
       d="m 114.29363,128.49907 c 1.02215,-0.42868 1.98026,-0.91795 2.12913,-1.08725 0.14887,-0.16931 0.50222,-0.43745 0.78522,-0.59587 0.52704,-0.29504 1.09366,-1.11918 1.89389,-2.75467 0.72925,-1.49041 0.77722,-5.38289 0.10901,-8.84419 -0.30698,-1.59009 -0.65158,-3.01884 -0.7658,-3.175 -0.11422,-0.15617 -0.42036,-1.17691 -0.68031,-2.26831 -1.17002,-4.91231 -2.87744,-7.8256 -5.87664,-10.027001 -3.91347,-2.872473 -7.19564,-4.16042 -16.241256,-6.373167 -0.509323,-0.124592 -1.551263,-0.403847 -2.315419,-0.620567 -1.962822,-0.55667 -9.460965,-0.191834 -12.078888,0.587721 -1.004631,0.299154 -2.777699,0.67414 -3.940151,0.833303 -5.168151,0.707618 -7.738329,1.738127 -10.590469,4.246226 -2.329394,2.048405 -5.367094,5.214355 -5.689343,5.929525 -0.955363,2.12026 -1.17493,3.41592 -1.036971,6.11905 0.162102,3.17615 0.722254,4.6318 2.632723,6.84156 1.618139,1.87164 2.293543,2.44037 4.059084,3.41799 l 1.560409,0.86403 1.504609,-0.97247 c 0.827537,-0.53487 1.842865,-1.09409 2.256285,-1.24272 2.309818,-0.8304 3.599053,-1.16292 5.381881,-1.38808 1.091407,-0.13784 2.758282,-0.43359 3.704167,-0.65722 2.432026,-0.575 7.456466,-0.53397 11.014358,0.09 4.454684,0.78119 10.024331,2.75106 11.166121,3.94923 0.6309,0.66204 2.00939,3.16348 2.65214,4.81261 0.19726,0.50612 0.97117,1.48596 1.71979,2.17741 l 1.36113,1.25718 1.71342,-0.16993 c 0.94449,-0.0937 2.54743,-0.51971 3.57188,-0.94935 z"
       id="path5" 
	   class="brain-region" 
       data-region="frontal-lobe"
       data-name="Frontal Lobe"
	   />
	   
	   
    <path
      
       d="m 85.592708,130.17308 c 0,-0.10254 0.616854,-0.40825 1.37079,-0.67936 1.058471,-0.38063 1.803818,-0.95015 3.271369,-2.49967 3.084999,-3.25731 3.479546,-3.78948 3.9273,-5.29723 0.646544,-2.17715 0.57702,-2.8856 -0.30123,-3.06943 -0.400183,-0.0838 -1.203855,-0.2716 -1.785938,-0.41743 -0.582083,-0.14582 -2.729595,-0.33323 -4.77225,-0.41647 -3.150097,-0.12837 -4.094027,-0.0686 -6.217708,0.39387 -1.377085,0.29987 -3.140599,0.61874 -3.918916,0.7086 -1.831157,0.2114 -5.066434,1.3783 -6.467194,2.33256 -0.898906,0.61238 -0.730856,0.88644 1.2231,1.99464 1.386559,0.7864 1.744517,1.10157 4.495818,3.95853 1.781641,1.85006 4.231156,3.19378 6.325719,3.47007 1.328457,0.17524 2.84914,-0.0803 2.84914,-0.47868 z"
       id="path4"
	   data-region="parietal-lobe"
       data-name="Parietal Lobe"
       class="brain-region"
	    />
	   
	   
    <path
   
       d="m 103.08639,139.36651 c 1.19993,-0.35951 1.52367,-0.69 2.47278,-2.52436 0.75747,-1.46397 1.30201,-3.48992 1.60505,-5.97157 0.17712,-1.45057 0.15058,-1.55311 -0.54329,-2.09891 -0.40123,-0.31561 -1.13389,-1.46118 -1.62812,-2.5457 -1.37758,-3.02289 -2.5443,-4.62616 -3.75535,-5.16047 -0.82104,-0.36225 -5.533169,-2.03131 -5.734818,-2.03131 -0.02474,0 -0.118332,0.70191 -0.208,1.55979 -0.08966,0.85789 -0.310274,1.89969 -0.490238,2.31511 -0.356018,0.82182 -2.332022,3.25738 -4.117962,5.07568 -0.618741,0.62995 -1.124984,1.24058 -1.124984,1.35696 0,0.11638 -0.386954,0.35596 -0.859896,0.53241 -0.472943,0.17644 -1.132642,0.42867 -1.465998,0.56051 l -0.606105,0.2397 0.870688,1.60518 c 0.563803,1.03942 1.725025,2.42723 3.294615,3.9375 2.401518,2.31075 3.141922,2.73138 5.778154,3.28263 1.163714,0.24334 5.556604,0.15353 6.513474,-0.13315 z"
       id="path3"
       data-region="temporal-lobe"
       data-name="Temporal Lobe"
       class="brain-region"
	    />
	   
	   
    <path

       d="m 103.48041,158.30156 1.08666,-0.16856 0.21948,-2.68222 c 0.28703,-3.50773 0.18367,-6.33838 -0.29049,-7.95575 -0.21038,-0.71764 -0.38774,-1.7892 -0.39413,-2.38125 -0.006,-0.59206 -0.18319,-1.55271 -0.39289,-2.13479 -0.20971,-0.58209 -0.38328,-1.41553 -0.38572,-1.85209 l -0.004,-0.79375 -3.769865,-0.007 c -4.179223,-0.008 -5.535488,-0.31905 -7.517283,-1.72499 -0.605859,-0.42982 -1.164712,-0.78149 -1.24188,-0.78149 -0.07717,0 0.11276,0.56555 0.422066,1.25677 0.634621,1.41824 1.665216,5.56933 2.112835,8.51021 0.227756,1.49637 0.218935,2.87726 -0.03718,5.82083 -0.184674,2.12249 -0.402759,4.20475 -0.484634,4.62726 l -0.14886,0.76819 4.869836,-0.16637 c 2.678405,-0.0915 5.358825,-0.24223 5.956495,-0.33494 z"
       id="path2"
       data-region="cerebellum"
       data-name="Cerebellum"
       class="brain-region"
	    />
	   
	   
  </g>
</svg>
