<?xml version="1.0" encoding="UTF-8" standalone="no"?>
<svg
   width="600"
   height="400"
   viewBox="0 0 600 400"
   version="1.1"
   id="brain-svg"
   xmlns="http://www.w3.org/2000/svg">
  <defs>
    <style>
      .brain-region {
        fill: #e0e0e0;
        stroke: #333;
        stroke-width: 2;
        cursor: pointer;
        transition: all 0.3s ease;
      }
      .brain-region:hover {
        fill: #d0d0d0;
        stroke-width: 3;
      }
      .brain-region.selected {
        fill: #4CAF50;
      }
    </style>
  </defs>
  <g id="brain-regions">
    <!-- Frontal Lobe -->
    <path
       data-region="frontal-lobe"
       data-name="Frontal Lobe"
       class="brain-region"
       d="M 150,150 C 120,120 100,100 120,80 C 140,60 180,50 220,60 C 260,70 280,100 270,130 C 260,160 200,180 150,150 Z" />
    
    <!-- Parietal Lobe -->
    <path
       data-region="parietal-lobe"
       data-name="Parietal Lobe"
       class="brain-region"
       d="M 270,130 C 280,100 300,90 330,95 C 360,100 380,120 380,150 C 380,180 360,200 330,210 C 300,220 270,200 270,170 Z" />
    
    <!-- Temporal Lobe -->
    <path
       data-region="temporal-lobe"
       data-name="Temporal Lobe"
       class="brain-region"
       d="M 150,180 C 120,180 100,200 100,230 C 100,260 120,280 150,280 C 180,280 200,260 210,240 C 220,220 200,200 180,190 Z" />
    
    <!-- Occipital Lobe -->
    <path
       data-region="occipital-lobe"
       data-name="Occipital Lobe"
       class="brain-region"
       d="M 330,210 C 350,210 380,210 400,220 C 420,230 430,250 420,270 C 410,290 380,300 350,290 C 320,280 310,250 320,230 Z" />
    
    <!-- Cerebellum -->
    <path
       data-region="cerebellum"
       data-name="Cerebellum"
       class="brain-region"
       d="M 210,240 C 230,240 250,250 270,260 C 290,270 300,290 280,310 C 260,330 220,330 200,320 C 180,310 180,280 190,260 Z" />
    
    <!-- Brain Stem -->
    <path
       data-region="brain-stem"
       data-name="Brain Stem"
       class="brain-region"
       d="M 250,310 C 260,310 270,320 270,330 C 270,340 265,350 255,355 C 245,360 235,355 230,345 C 225,335 230,320 240,315 Z" />
    
    <!-- Motor Cortex -->
    <path
       data-region="motor-cortex"
       data-name="Motor Cortex"
       class="brain-region"
       d="M 200,120 C 210,110 230,105 245,110 C 260,115 270,125 265,140 C 260,155 240,160 220,155 C 200,150 190,135 200,120 Z" />
    
    <!-- Prefrontal Cortex -->
    <path
       data-region="prefrontal-cortex"
       data-name="Prefrontal Cortex"
       class="brain-region"
       d="M 100,100 C 110,85 130,75 150,80 C 170,85 180,100 175,115 C 170,130 150,140 130,135 C 110,130 95,115 100,100 Z" />
  </g>
</svg>
